# xmcd
#
# Track frame offsets: 
#        150
#        3542
#        7635
#        26742
#        45140
#        48892
#        52622
#        53732
#        54555
#        63270
#        84455
#        87757
#        93762
#        112225
#        113495
#        115897
#        129050
#        135707
#        157987
#        159930
#        163235
#        164280
#        166202
#        168222
#        168945
#        186960
#        204382
#        217217
#        219202
#        221047
#        241175
#        247277
#        250947
#        255712
#        257420
#
# Disc length: 3508 seconds
#
# Revision: 2
# Processed by: cddbd v1.5.1PL0 Copyright (c) Steve Scherf et al.
# Submitted via: ExactAudioCopy v0.95a5
#
DISCID=c10db223
DTITLE=Jeff Wayne - The War Of The Worlds [CD 4 - The Coming Of The Ma
DTITLE=rtians Revisited)
DYEAR=2005
DGENRE=Progressive Rock
TTITLE0=The 4 Narrators (Opening Passage)
TTITLE1=The Eve Of The War (Unused Intro)
TTITLE2=The Eve Of The War (Early Take)
TTITLE3=The Eve Of The War (Stripped Mix)
TTITLE4=The Eve Of The War
TTITLE5='That' Laugh
TTITLE6=Out-Takes (Horsell Common And The Heatray) 1
TTITLE7=Out-Takes (Horsell Common And The Heatray) 2
TTITLE8=Out-Takes (Horsell Common And The Heatray) 3
TTITLE9=Horsell Common And The Heatray (Early Take)
TTITLE10=Out-Takes (Horsell Common And The Heatray) 4
TTITLE11=The Heatray Vs The Jangle Piano (Martian Vs Man)
TTITLE12=The Artilleryman And The Fighting Machine (Early Band Take)
TTITLE13=Richard Burton Outtake
TTITLE14=Lego Toys (Original 1969 TV Commercial featuring Paul Vigrass
TTITLE14=and Gary Osborne)
TTITLE15=Forever Autumn (1972 Version by Paul Vigrass and Gary Osborne)
TTITLE16=Bar Count-Under Attack (Forever Autumn)
TTITLE17=Forever Autumn (Early Version)
TTITLE18=Bar Count Continues (Forever Autumn)
TTITLE19=Paperboys (Original Outtakes) 1
TTITLE20=Paperboys (Original Outtakes) 2
TTITLE21=Paperboy Shouts And Panicking Crowds 1
TTITLE22=Paperboy Shouts And Panicking Crowds 2
TTITLE23=''Ugly Brutes'' And ''See Them'' (Forever Autumn) 1
TTITLE24=Forever Autumn (Early Version)
TTITLE25=Thunder Child (Early Version)
TTITLE26=Thunder Child (Later Version)
TTITLE27=The 4 Narrators (The Earth Belonged To The Martians)
TTITLE28=The 4 Narrators (The Red Weed)
TTITLE29=The Red Weed (Early Version)
TTITLE30=Unused Outtake (The  Red Weed)
TTITLE31=The Red Weed (Unused Part 1)
TTITLE32=The Red Weed (Unused Part 2
TTITLE33=Jeff's ''Worth A Listen'' (Red Weed Alternative)
TTITLE34=Original 75'' Radio Commercial
EXTD=YEAR: 2005
EXTT0=
EXTT1=
EXTT2=
EXTT3=
EXTT4=
EXTT5=
EXTT6=
EXTT7=
EXTT8=
EXTT9=
EXTT10=
EXTT11=
EXTT12=
EXTT13=
EXTT14=
EXTT15=
EXTT16=
EXTT17=
EXTT18=
EXTT19=
EXTT20=
EXTT21=
EXTT22=
EXTT23=
EXTT24=
EXTT25=
EXTT26=
EXTT27=
EXTT28=
EXTT29=
EXTT30=
EXTT31=
EXTT32=
EXTT33=
EXTT34=
PLAYORDER=
